@startuml

title UML-діаграма розгортання ПП

left to right direction

skinparam componentStyle uml1

node "<<Mobile phone>>" as dk {
    node "<<Operating System Android/iOS>>" {
        node "<<Mobile Application>>" {
            component [*.apk]
        }
    }
}

interface sensor

interface microphone

interface camera

sensor -- dk

microphone -- dk

camera -- dk

node "<<Server 1>>" as serv1 {
	node "<<Operating System Windows>>" as l1 {
	    node "<<Flutter Application Server>>" {
		    component [*.dart]
		}
	}
}

dk -- serv1

node "<<Google cloud platform>>" as serv2 {
	node "<<Firebase>>" as l2 {
	    node "<<Firestore>>" {
		    database documents
		}
	}
}

serv1 -- serv2

@enduml
